<?xml version="1.0" encoding="UTF-8" standalone="no"?>
<!-- Created with Inkscape (http://www.inkscape.org/) -->
<svg
   xmlns:dc="http://purl.org/dc/elements/1.1/"
   xmlns:cc="http://creativecommons.org/ns#"
   xmlns:rdf="http://www.w3.org/1999/02/22-rdf-syntax-ns#"
   xmlns:svg="http://www.w3.org/2000/svg"
   xmlns="http://www.w3.org/2000/svg"
   xmlns:sodipodi="http://sodipodi.sourceforge.net/DTD/sodipodi-0.dtd"
   xmlns:inkscape="http://www.inkscape.org/namespaces/inkscape"
   version="1.1"
   id="svg2"
   width="157.96922"
   height="239.41347"
   viewBox="0 0 157.96922 239.41347"
   sodipodi:docname="carrot.svg"
   inkscape:version="0.92.4 (5da689c313, 2019-01-14)">
  <metadata
     id="metadata8">
    <rdf:RDF>
      <cc:Work
         rdf:about="">
        <dc:format>image/svg+xml</dc:format>
        <dc:type
           rdf:resource="http://purl.org/dc/dcmitype/StillImage" />
        <dc:title></dc:title>
      </cc:Work>
    </rdf:RDF>
  </metadata>
  <defs
     id="defs6">
    <clipPath
       clipPathUnits="userSpaceOnUse"
       id="clipPath825">
      <rect
         style="opacity:1;fill:#d45500;fill-opacity:1;fill-rule:evenodd;stroke:none;stroke-width:18.89763832;stroke-linecap:butt;stroke-linejoin:round;stroke-miterlimit:4;stroke-dasharray:none;stroke-opacity:1;paint-order:fill markers stroke"
         id="rect827"
         width="174.75"
         height="212.26695"
         x="19.745762"
         y="-5.9237289"
         ry="0.86291301" />
    </clipPath>
    <clipPath
       clipPathUnits="userSpaceOnUse"
       id="clipPath849">
      <rect
         style="opacity:1;fill:#d45500;fill-opacity:1;fill-rule:evenodd;stroke:none;stroke-width:18.89763832;stroke-linecap:butt;stroke-linejoin:round;stroke-miterlimit:4;stroke-dasharray:none;stroke-opacity:1;paint-order:fill markers stroke"
         id="rect851"
         width="174.75"
         height="198.44492"
         x="22.707623"
         y="18.758472"
         ry="0.86291301" />
    </clipPath>
  </defs>
  <sodipodi:namedview
     pagecolor="#ffffff"
     bordercolor="#666666"
     borderopacity="1"
     objecttolerance="10"
     gridtolerance="10"
     guidetolerance="10"
     inkscape:pageopacity="0"
     inkscape:pageshadow="2"
     inkscape:window-width="1920"
     inkscape:window-height="1013"
     id="namedview4"
     showgrid="false"
     inkscape:zoom="1.0128755"
     inkscape:cx="-111.42089"
     inkscape:cy="58.923068"
     inkscape:window-x="-9"
     inkscape:window-y="-9"
     inkscape:window-maximized="1"
     inkscape:current-layer="svg2" />
  <g
     id="g829"
     transform="rotate(-34.829856,85.210788,165.84129)"
     clip-path="url(#clipPath849)">
    <path
       style="fill:#f59761"
       d="m -1.9745763,236.34746 v -8.5 h 107.9999963 108 v 8.5 8.5 h -108 -107.9999963 z m 31.0000003,1.53518 c 0,-0.53065 -1.0125,-1.48894 -2.25,-2.12953 l -2.25,-1.16472 2,2.0701 c 2.341149,2.42321 2.5,2.50099 2.5,1.22415 z m 13.571429,-1.12843 c 0,-0.96795 -0.315137,-1.56515 -0.700305,-1.3271 -0.385167,0.23805 -0.928212,-0.13249 -1.206766,-0.82342 -0.278555,-0.69093 -0.54199,-0.0937 -0.585411,1.3271 -0.04521,1.47921 0.470572,2.58334 1.206767,2.58334 0.707143,0 1.285715,-0.79196 1.285715,-1.75992 z m -4.105757,-1.75689 c -0.563459,-0.59314 -2.465672,0.91014 -2.465672,1.94858 0,0.53923 0.629613,0.40017 1.399141,-0.30901 0.769527,-0.70919 1.249466,-1.44699 1.066531,-1.63957 z m -3.939211,0.0433 c -0.307887,-0.30789 -1.114794,-6.4e-4 -1.793128,0.68278 -0.980267,0.98762 -0.865403,1.10248 0.559795,0.5598 0.986221,-0.37553 1.541221,-0.93469 1.233333,-1.24258 z m -5.560501,-23.25676 c -3.369178,-6.29537 9.256545,-34.79848 32.635068,-73.67508 14.80729,-24.62332 25.138478,-39.900993 29.30412,-43.334667 5.026665,-4.143403 12.145158,-6.290402 18.449558,-5.564546 2.82991,0.325821 6.27029,0.715137 7.64529,0.865147 2.03305,0.221801 2.87356,-0.474371 4.5,-3.727256 2.08579,-4.171582 2.47207,-11.359011 1.45851,-27.138235 -0.38688,-6.023154 -0.16093,-7.468119 1.44648,-9.25 2.22939,-2.471378 5.2984,-2.708244 8.25531,-0.637144 2.08556,1.460782 2.10073,1.416206 1.61574,-4.75 -0.41936,-5.331778 -0.17698,-6.619074 1.68977,-8.974621 2.99303,-3.776733 8.98962,-3.893413 11.8705,-0.230972 l 1.98146,2.519028 0.67854,-4.016204 c 0.94231,-5.577497 3.43217,-8.355185 7.4894,-8.355185 3.70278,0 6.01429,2.341597 6.01429,6.092557 v 2.376964 l 2.90437,-2.068094 c 3.27332,-2.330806 6.11994,-2.643782 7.89563,-0.868094 1.45215,1.452154 1.59637,7.436998 0.2,8.3 -1.93384,1.195182 -0.96722,2.166667 2.15583,2.166667 3.48942,0 6.84417,3.196361 6.84417,6.52104 0,2.595706 -5.29056,7.812293 -7.92308,7.812293 -1.1423,0 -2.07692,0.45 -2.07692,1 0,0.55 0.45,1 1,1 3.49234,0 6.12836,6.895959 4.37882,11.455198 -1.00143,2.609691 -5.8874,4.544802 -11.47518,4.544802 h -5.19569 l 2.64603,2.452251 c 4.56949,4.234865 3.02937,9.870608 -3.12099,11.420589 -2.05314,0.517423 -7.07144,1.242439 -11.15177,1.611147 -8.86252,0.800839 -16.87723,3.605524 -20.09697,7.032781 l -2.34518,2.496322 2.42921,4.243452 c 3.43311,5.99712 3.48392,18.10706 0.10475,24.96818 -5.04898,10.25155 -54.496717,57.87031 -78.693104,75.7824 -12.692835,9.39625 -21.19454,12.26315 -23.513962,7.92928 z"
       id="path843"
       inkscape:connector-curvature="0" />
    <path
       style="fill:#8cc43d"
       d="m -1.9745763,236.34746 v -8.5 h 107.9999963 108 v 8.5 8.5 h -108 -107.9999963 z m 31.0000003,1.53518 c 0,-0.53065 -1.0125,-1.48894 -2.25,-2.12953 l -2.25,-1.16472 2,2.0701 c 2.341149,2.42321 2.5,2.50099 2.5,1.22415 z m 13.571429,-1.12843 c 0,-0.96795 -0.315137,-1.56515 -0.700305,-1.3271 -0.385167,0.23805 -0.928212,-0.13249 -1.206766,-0.82342 -0.278555,-0.69093 -0.54199,-0.0937 -0.585411,1.3271 -0.04521,1.47921 0.470572,2.58334 1.206767,2.58334 0.707143,0 1.285715,-0.79196 1.285715,-1.75992 z m -4.105757,-1.75689 c -0.563459,-0.59314 -2.465672,0.91014 -2.465672,1.94858 0,0.53923 0.629613,0.40017 1.399141,-0.30901 0.769527,-0.70919 1.249466,-1.44699 1.066531,-1.63957 z m -3.939211,0.0433 c -0.307887,-0.30789 -1.114794,-6.4e-4 -1.793128,0.68278 -0.980267,0.98762 -0.865403,1.10248 0.559795,0.5598 0.986221,-0.37553 1.541221,-0.93469 1.233333,-1.24258 z m -4.859794,-21.8598 c -1.31101,-1.31101 -0.631844,-8.50221 1.380288,-14.61488 5.077385,-15.42464 26.961352,-55.56134 46.464154,-85.21848 10.040736,-15.268554 13.893369,-19.522499 19.988891,-22.071045 4.459906,-1.864694 14.554486,-2.193695 18.609736,-0.606527 2.41595,0.94557 2.78697,0.711628 4.99645,-3.150507 2.03914,-3.564372 2.38212,-5.48258 2.35514,-13.171923 -0.0174,-4.95 -0.22529,-12.007349 -0.46207,-15.682998 -0.35561,-5.520342 -0.10507,-7.042599 1.4401,-8.75 2.34882,-2.595414 5.97651,-2.651132 8.49713,-0.130508 1.91533,1.915324 1.93022,1.861671 1.36267,-4.908121 -0.53721,-6.407785 -0.40841,-7.010029 2.01805,-9.436493 3.54557,-3.545569 8.77695,-3.558928 11.55319,-0.0295 l 2.01557,2.562376 0.66926,-3.812376 c 1.1034,-6.285455 2.9158,-8.31238 7.43264,-8.31238 4.15093,0 6.01213,1.811372 6.01213,5.85118 0,1.945987 0.0736,1.942578 3.97583,-0.184259 3.10359,-1.691532 4.36505,-1.925412 5.75,-1.066072 2.03703,1.263951 2.94264,7.130683 1.34701,8.726309 -1.86862,1.868618 -1.17516,2.672842 2.30472,2.672842 8.987,0 7.98176,11.903959 -1.1499,13.617069 -3.26815,0.613109 -3.47143,0.815569 -1.79442,1.787184 3.87725,2.246376 5.56632,4.640617 5.53496,7.845747 -0.0592,6.047804 -3.93556,8.736726 -12.65246,8.776609 l -5.81574,0.02661 2.79071,1.72339 c 5.63024,3.476922 4.50366,10.353561 -1.99169,12.157274 -2.08946,0.58023 -5.40387,1.057473 -7.36536,1.06054 -5.23452,0.0082 -14.94525,1.966262 -18.41349,3.712906 -1.66109,0.836547 -4.18273,2.607013 -5.60363,3.93437 l -2.58346,2.413376 2.58346,5.220227 c 3.40979,6.88993 3.51597,15.99486 0.27086,23.2247 -4.30708,9.59578 -62.257537,64.96589 -82.086649,78.43158 -9.779084,6.64085 -17.32211,9.51372 -19.43408,7.40175 z"
       id="path841"
       inkscape:connector-curvature="0" />
    <path
       style="fill:#fa741a"
       d="m -1.9745763,236.34746 v -8.5 h 107.9999963 108 v 8.5 8.5 h -108 -107.9999963 z m 31.0000003,1.53518 c 0,-0.53065 -1.0125,-1.48894 -2.25,-2.12953 l -2.25,-1.16472 2,2.0701 c 2.341149,2.42321 2.5,2.50099 2.5,1.22415 z m 13.571429,-1.12843 c 0,-0.96795 -0.315137,-1.56515 -0.700305,-1.3271 -0.385167,0.23805 -0.928212,-0.13249 -1.206766,-0.82342 -0.278555,-0.69093 -0.54199,-0.0937 -0.585411,1.3271 -0.04521,1.47921 0.470572,2.58334 1.206767,2.58334 0.707143,0 1.285715,-0.79196 1.285715,-1.75992 z m -4.105757,-1.75689 c -0.563459,-0.59314 -2.465672,0.91014 -2.465672,1.94858 0,0.53923 0.629613,0.40017 1.399141,-0.30901 0.769527,-0.70919 1.249466,-1.44699 1.066531,-1.63957 z m -3.939211,0.0433 c -0.307887,-0.30789 -1.114794,-6.4e-4 -1.793128,0.68278 -0.980267,0.98762 -0.865403,1.10248 0.559795,0.5598 0.986221,-0.37553 1.541221,-0.93469 1.233333,-1.24258 z m -4.859794,-21.8598 c -1.31101,-1.31101 -0.631844,-8.50221 1.380288,-14.61488 6.79919,-20.65528 47.849651,-91.83992 59.061862,-102.417771 6.529492,-6.16007 16.175689,-8.160843 26.035689,-5.400212 10.2304,2.864336 17.38372,13.229883 17.32132,25.099533 -0.0603,11.47016 -1.53089,13.5328 -29.24426,41.01828 -31.73774,31.47675 -53.030165,49.36005 -65.521835,55.03116 -4.312025,1.95762 -7.855672,2.46129 -9.033064,1.28389 z"
       id="path839"
       inkscape:connector-curvature="0" />
    <path
       style="fill:#797a81"
       d="m -1.9745763,236.34746 v -8.5 h 107.9999963 108 v 8.5 8.5 h -108 -107.9999963 z m 31.0000003,1.53518 c 0,-0.53065 -1.0125,-1.48894 -2.25,-2.12953 l -2.25,-1.16472 2,2.0701 c 2.341149,2.42321 2.5,2.50099 2.5,1.22415 z m 13.571429,-1.12843 c 0,-0.96795 -0.315137,-1.56515 -0.700305,-1.3271 -0.385167,0.23805 -0.928212,-0.13249 -1.206766,-0.82342 -0.278555,-0.69093 -0.54199,-0.0937 -0.585411,1.3271 -0.04521,1.47921 0.470572,2.58334 1.206767,2.58334 0.707143,0 1.285715,-0.79196 1.285715,-1.75992 z m -4.105757,-1.75689 c -0.563459,-0.59314 -2.465672,0.91014 -2.465672,1.94858 0,0.53923 0.629613,0.40017 1.399141,-0.30901 0.769527,-0.70919 1.249466,-1.44699 1.066531,-1.63957 z m -3.939211,0.0433 c -0.307887,-0.30789 -1.114794,-6.4e-4 -1.793128,0.68278 -0.980267,0.98762 -0.865403,1.10248 0.559795,0.5598 0.986221,-0.37553 1.541221,-0.93469 1.233333,-1.24258 z m -4.326461,-22.39316 c -0.66,-0.66 -1.138718,-2.7975 -1.063818,-4.75 0.09882,-2.57618 0.259831,-2.8964 0.586936,-1.16733 0.424783,2.24538 0.787322,2.04961 6.29213,-3.39776 5.694626,-5.6352 5.791395,-5.8209 3.851875,-7.39142 -4.10594,-3.32479 0.406594,-6.83591 4.691747,-3.65056 1.791665,1.33182 2.419454,0.9712 8.153197,-4.68352 l 6.212067,-6.12644 -3.462067,-2.35254 c -3.637006,-2.47141 -4.246524,-4.09597 -2.276055,-6.06644 0.914682,-0.91468 2.178014,-0.60466 5.522166,1.35514 5.245474,3.07405 3.341529,4.28007 23.287658,-14.7511 l 14.236413,-13.58337 -5.616124,-4.14887 c -5.944454,-4.39143 -6.321923,-4.97999 -4.416125,-6.88579 1.849124,-1.84912 2.887975,-1.50376 8.675942,2.88427 l 5.375934,4.07567 4.12406,-3.81851 c 14.62656,-13.54286 19.3351,-18.95537 21.09227,-24.24572 1.25192,-3.76917 1.61631,-6.98784 1.22278,-10.8008 -0.46995,-4.553382 -0.3367,-5.245763 0.82418,-4.282325 3.2108,2.664725 5.89659,10.402195 5.89659,16.987415 0,10.44183 -2.27633,13.94021 -22.35286,34.35298 -29.715004,30.21269 -57.565487,54.19348 -70.468618,60.67736 -6.448436,3.24037 -8.559943,3.6 -10.390278,1.76966 z m 2.870871,-19.3 c 0,-0.55 0.643108,-2.125 1.429129,-3.5 0.786021,-1.375 1.429129,-2.05 1.429129,-1.5 0,0.55 -0.643108,2.125 -1.429129,3.5 -0.786021,1.375 -1.429129,2.05 -1.429129,1.5 z m 5.929129,-12.86658 c 0,-1.08345 4.969856,-10.63342 5.533692,-10.63342 0.275,0 -0.686716,2.3625 -2.137147,5.25 -2.789523,5.55335 -3.396545,6.51546 -3.396545,5.38342 z M 70.497646,157.8882 c -1.084722,-1.0776 -3.997222,-3.02638 -6.472222,-4.33063 -5.03161,-2.65151 -6.157919,-5.97493 -2.21448,-6.53432 2.637679,-0.37416 9.615815,3.45772 13.111254,7.19973 1.990113,2.1305 2.181426,2.82533 1.127555,4.09516 -1.694743,2.04205 -3.179505,1.92707 -5.552107,-0.42994 z m -16.472222,-6.04074 c 0.588702,-1.1 1.295368,-2 1.570368,-2 0.275,0 0.01833,0.9 -0.570368,2 -0.588702,1.1 -1.295368,2 -1.570368,2 -0.275,0 -0.01833,-0.9 0.570368,-2 z m 4,-7 c 0.588702,-1.1 1.295368,-2 1.570368,-2 0.275,0 0.01833,0.9 -0.570368,2 -0.588702,1.1 -1.295368,2 -1.570368,2 -0.275,0 -0.01833,-0.9 0.570368,-2 z m 3,-5 c 0.588702,-1.1 1.295368,-2 1.570368,-2 0.275,0 0.01833,0.9 -0.570368,2 -0.588702,1.1 -1.295368,2 -1.570368,2 -0.275,0 -0.01833,-0.9 0.570368,-2 z m 3,-5 c 0.588702,-1.1 1.295368,-2 1.570368,-2 0.275,0 0.01833,0.9 -0.570368,2 -0.588702,1.1 -1.295368,2 -1.570368,2 -0.275,0 -0.01833,-0.9 0.570368,-2 z m 8,-13 c 0.588702,-1.1 1.295368,-2 1.570368,-2 0.275,0 0.01833,0.9 -0.570368,2 -0.588702,1.1 -1.295368,2 -1.570368,2 -0.275,0 -0.01833,-0.9 0.570368,-2 z m 31.125016,-7.99824 c -2.81327,-2.11385 -6.692272,-4.3639 -8.62002,-5.00011 -2.33886,-0.7719 -3.504996,-1.77673 -3.504996,-3.02019 0,-4.41364 5.386664,-3.57439 14.007496,2.18238 4.43936,2.96449 5.9925,4.60042 5.9925,6.31191 0,3.75964 -2.43566,3.61303 -7.87498,-0.47399 z m -22.154822,-5.94607 c 0.572308,-1.06937 1.534818,-2.24977 2.13891,-2.62312 0.604092,-0.37335 0.324918,0.50159 -0.620387,1.9443 -2.001622,3.05487 -3.038114,3.5182 -1.518523,0.67882 z m 8.029806,-10.555692 c 1.865783,-1.925 3.617334,-3.5 3.892334,-3.5 0.275,0 -1.026551,1.575 -2.892334,3.5 -1.865783,1.925 -3.617334,3.500002 -3.892334,3.500002 -0.275,0 1.026551,-1.575002 2.892334,-3.500002 z m 12.812496,-7.183114 c 0.72187,-0.288871 1.58437,-0.253344 1.91667,0.07895 0.33229,0.332292 -0.25834,0.568641 -1.3125,0.52522 -1.16495,-0.04798 -1.4019,-0.284941 -0.60417,-0.604167 z m 10,0 c 0.72187,-0.288871 1.58437,-0.253344 1.91667,0.07895 0.33229,0.332292 -0.25834,0.568641 -1.3125,0.52522 -1.16495,-0.04798 -1.4019,-0.284941 -0.60417,-0.604167 z"
       id="path837"
       inkscape:connector-curvature="0" />
    <path
       style="fill:#ec6408"
       d="m -1.9745763,236.34746 v -8.5 h 107.9999963 108 v 8.5 8.5 h -108 -107.9999963 z m 13.2500003,2.83772 c -0.6875,-0.27741 -1.25,-1.22033 -1.25,-2.09537 0,-1.28661 0.442771,-1.17502 2.314451,0.58334 3.126696,2.93737 4.201366,2.78104 1.239945,-0.18038 -2.180899,-2.1809 -5.5543963,-4.1117 -5.5543963,-3.17902 0,1.79135 2.2034873,5.51804 3.2252493,5.45476 1.002884,-0.0621 1.008162,-0.18652 0.02475,-0.58333 z m 11.699687,-2.24371 c 0.818722,-1.5298 0.561291,-1.77659 -1.744622,-1.67256 -1.487786,0.0671 -3.155065,-0.16963 -3.705065,-0.52612 -0.55,-0.35649 -1.9,-0.2854 -3,0.15797 -1.698518,0.68461 -1.736203,0.81672 -0.25,0.87641 0.9625,0.0387 1.756891,0.63279 1.765313,1.32029 0.01021,0.83333 0.338437,0.75 0.984687,-0.25 0.861666,-1.33333 0.972777,-1.33333 1,0 0.02534,1.24131 0.181163,1.26233 0.903509,0.12188 0.480086,-0.75796 1.395047,-1.0554 2.033246,-0.66097 0.865853,0.53513 0.830777,1.12398 -0.138197,2.32008 -0.962877,1.18856 -0.97682,1.40966 -0.05393,0.85527 0.684542,-0.4112 1.676821,-1.55522 2.205064,-2.54225 z m 5.560394,1.88968 c 0.345464,-0.55897 1.047021,-0.75742 1.559017,-0.44098 0.511996,0.31643 0.878701,-0.68873 0.814901,-2.23369 -0.0638,-1.54496 -0.312491,-2.06984 -0.552644,-1.16641 -0.299117,1.12526 -1.111858,1.46604 -2.580447,1.082 -2.061123,-0.539 -2.068734,-0.59 -0.197356,-1.32233 1.799047,-0.70403 1.77606,-0.76703 -0.303552,-0.83199 -2.528955,-0.079 -3.048797,1.68595 -0.755744,2.56588 0.821841,0.31537 1.240747,0.98359 0.930902,1.48493 -0.309845,0.50134 -1.051789,0.60965 -1.648765,0.2407 -0.647828,-0.40038 -0.797753,-0.20538 -0.371885,0.48369 0.881408,1.42615 2.27135,1.488 3.105573,0.1382 z m 10.489919,-0.15036 c 0,-0.36666 -0.5625,-0.8949 -1.25,-1.17387 -0.992435,-0.40269 -0.994732,-0.68816 -0.01115,-1.38546 0.8154,-0.57806 0.04633,-0.91206 -2.25,-0.97715 -2.682073,-0.076 -3.48885,0.30216 -3.48885,1.63546 0,0.9539 0.1875,1.92186 0.416667,2.15102 0.691256,0.69126 6.583333,0.46751 6.583333,-0.25 z m -6,-1.27431 c 0,-0.85746 0.45,-1.55902 1,-1.55902 0.55,0 1,0.42344 1,0.94098 0,0.51754 -0.45,1.2191 -1,1.55902 -0.55,0.33992 -1,-0.0835 -1,-0.94098 z m 9.644213,0.0369 c -0.07932,-1.32222 -0.443278,-2.21942 -0.808803,-1.99377 -0.365524,0.22565 -0.892498,-0.15503 -1.171052,-0.84596 -0.278555,-0.69093 -0.54199,0.008 -0.585411,1.55279 -0.04592,1.63399 0.339358,2.55049 0.921053,2.19098 0.55,-0.33992 1,-0.14148 1,0.44098 0,0.58246 0.177396,1.05902 0.394213,1.05902 0.216818,0 0.329318,-1.08182 0.25,-2.40404 z m -34.6442133,0.40408 c 0,-0.55 -0.1984424,-1 -0.440983,-1 -0.2425407,0 -0.7190983,0.45 -1.059017,1 -0.3399187,0.55 -0.1414763,1 0.440983,1 0.5824594,0 1.059017,-0.45 1.059017,-1 z M 158.01011,237.43079 c 0.008,0.59584 0.69031,1.08334 1.51531,1.08334 1.80231,0 2.03663,-1.63382 0.25,-1.74318 -0.6875,-0.0421 -2.0375,-0.22726 -3,-0.41152 -1.77324,-0.33945 -2.31422,0.59047 -1.06831,1.83639 0.37494,0.37493 1.04305,0.11243 1.48469,-0.58333 0.46868,-0.73835 0.80937,-0.814 0.81831,-0.1817 z m 9.01531,0.41667 c 0,-0.55 -0.675,-1 -1.5,-1 -0.825,0 -1.5,0.45 -1.5,1 0,0.55 0.675,1 1.5,1 0.825,0 1.5,-0.45 1.5,-1 z m 4,-0.059 c 0,-0.58246 -0.45,-0.7809 -1,-0.44098 -0.55,0.33992 -1,0.0665 -1,-0.60765 0,-0.67413 -0.27006,-0.95562 -0.60014,-0.62555 -0.76825,0.76826 0.42454,2.7332 1.65916,2.7332 0.51754,0 0.94098,-0.47656 0.94098,-1.05902 z m 4,0.059 c 0,-0.55 -0.70156,-1 -1.55902,-1 -0.85746,0 -1.2809,0.45 -0.94098,1 0.33992,0.55 1.04148,1 1.55902,1 0.51754,0 0.94098,-0.45 0.94098,-1 z m 3,0.059 c 0,-0.51754 -0.45,-1.2191 -1,-1.55902 -0.55,-0.33992 -1,0.0835 -1,0.94098 0,0.85746 0.45,1.55902 1,1.55902 0.55,0 1,-0.42344 1,-0.94098 z m 11,-0.159 c 0,-0.495 -1.575,-0.9 -3.5,-0.9 -1.925,0 -3.5,0.405 -3.5,0.9 0,0.495 1.575,0.9 3.5,0.9 1.925,0 3.5,-0.405 3.5,-0.9 z m 1.68311,-1.0875 c -0.31922,-0.79773 -0.55618,-0.56078 -0.60416,0.60417 -0.0434,1.05416 0.19292,1.64479 0.52522,1.3125 0.33229,-0.3323 0.36781,-1.1948 0.0789,-1.91667 z m 2.50022,-0.0292 c -0.71756,-0.71756 -1.18333,-0.7766 -1.18333,-0.15 0,0.56834 0.3,1.33334 0.66667,1.7 0.36666,0.36667 0.89916,0.43417 1.18333,0.15 0.28417,-0.28416 -0.0158,-1.04916 -0.66667,-1.7 z m 7.83198,0.72727 c 0.008,-0.55583 0.49268,-0.3356 1.07613,0.4894 0.82928,1.1726 0.97781,1.19167 0.68048,0.0874 -0.46356,-1.72172 -3.7658,-2.37471 -3.78723,-0.74889 -0.01,0.73615 -0.28437,0.7953 -0.75,0.16152 -1.15327,-1.56973 -3.23469,-1.64489 -3.23469,-0.1168 0,0.89746 1.0535,1.34014 3,1.26059 1.65,-0.0674 3.00689,-0.57737 3.01531,-1.13319 z m 5.41527,0.43179 c 0.88702,0.73615 1.23609,0.60674 1.23609,-0.45827 0,-0.81626 -0.825,-1.48412 -1.83334,-1.48412 -1.10944,0 -1.80216,0.69099 -1.75438,1.75 0.0502,1.11289 0.26764,1.27973 0.59724,0.45826 0.36309,-0.90491 0.88846,-0.98453 1.75439,-0.26587 z M 30.225424,212.64746 c -0.66,-0.66 -1.138718,-2.7975 -1.063818,-4.75 0.09882,-2.57618 0.259831,-2.8964 0.586936,-1.16733 0.424783,2.24538 0.787322,2.04961 6.29213,-3.39776 5.694626,-5.6352 5.791395,-5.8209 3.851875,-7.39142 -4.10594,-3.32479 0.406594,-6.83591 4.691747,-3.65056 1.791665,1.33182 2.419454,0.9712 8.153197,-4.68352 l 6.212067,-6.12644 -3.462067,-2.35254 c -3.637006,-2.47141 -4.246524,-4.09597 -2.276055,-6.06644 0.914682,-0.91468 2.178014,-0.60466 5.522166,1.35514 5.245474,3.07405 3.341529,4.28007 23.287658,-14.7511 l 14.236413,-13.58337 -5.616124,-4.14887 c -5.944454,-4.39143 -6.321923,-4.97999 -4.416125,-6.88579 1.849124,-1.84912 2.887975,-1.50376 8.675942,2.88427 l 5.375934,4.07567 4.12406,-3.81851 c 14.62656,-13.54286 19.3351,-18.95537 21.09227,-24.24572 1.25192,-3.76917 1.61631,-6.98784 1.22278,-10.8008 -0.46995,-4.553382 -0.3367,-5.245763 0.82418,-4.282325 3.2108,2.664725 5.89659,10.402195 5.89659,16.987415 0,10.44183 -2.27633,13.94021 -22.35286,34.35298 -29.715004,30.21269 -57.565487,54.19348 -70.468618,60.67736 -6.448436,3.24037 -8.559943,3.6 -10.390278,1.76966 z m 2.870871,-19.3 c 0,-0.55 0.643108,-2.125 1.429129,-3.5 0.786021,-1.375 1.429129,-2.05 1.429129,-1.5 0,0.55 -0.643108,2.125 -1.429129,3.5 -0.786021,1.375 -1.429129,2.05 -1.429129,1.5 z m 5.929129,-12.86658 c 0,-1.08345 4.969856,-10.63342 5.533692,-10.63342 0.275,0 -0.686716,2.3625 -2.137147,5.25 -2.789523,5.55335 -3.396545,6.51546 -3.396545,5.38342 z M 70.497646,157.8882 c -1.084722,-1.0776 -3.997222,-3.02638 -6.472222,-4.33063 -5.03161,-2.65151 -6.157919,-5.97493 -2.21448,-6.53432 2.637679,-0.37416 9.615815,3.45772 13.111254,7.19973 1.990113,2.1305 2.181426,2.82533 1.127555,4.09516 -1.694743,2.04205 -3.179505,1.92707 -5.552107,-0.42994 z m -16.472222,-6.04074 c 0.588702,-1.1 1.295368,-2 1.570368,-2 0.275,0 0.01833,0.9 -0.570368,2 -0.588702,1.1 -1.295368,2 -1.570368,2 -0.275,0 -0.01833,-0.9 0.570368,-2 z m 4,-7 c 0.588702,-1.1 1.295368,-2 1.570368,-2 0.275,0 0.01833,0.9 -0.570368,2 -0.588702,1.1 -1.295368,2 -1.570368,2 -0.275,0 -0.01833,-0.9 0.570368,-2 z m 3,-5 c 0.588702,-1.1 1.295368,-2 1.570368,-2 0.275,0 0.01833,0.9 -0.570368,2 -0.588702,1.1 -1.295368,2 -1.570368,2 -0.275,0 -0.01833,-0.9 0.570368,-2 z m 3,-5 c 0.588702,-1.1 1.295368,-2 1.570368,-2 0.275,0 0.01833,0.9 -0.570368,2 -0.588702,1.1 -1.295368,2 -1.570368,2 -0.275,0 -0.01833,-0.9 0.570368,-2 z m 8,-13 c 0.588702,-1.1 1.295368,-2 1.570368,-2 0.275,0 0.01833,0.9 -0.570368,2 -0.588702,1.1 -1.295368,2 -1.570368,2 -0.275,0 -0.01833,-0.9 0.570368,-2 z m 31.125016,-7.99824 c -2.81327,-2.11385 -6.692272,-4.3639 -8.62002,-5.00011 -2.33886,-0.7719 -3.504996,-1.77673 -3.504996,-3.02019 0,-4.41364 5.386664,-3.57439 14.007496,2.18238 4.43936,2.96449 5.9925,4.60042 5.9925,6.31191 0,3.75964 -2.43566,3.61303 -7.87498,-0.47399 z m -22.154822,-5.94607 c 0.572308,-1.06937 1.534818,-2.24977 2.13891,-2.62312 0.604092,-0.37335 0.324918,0.50159 -0.620387,1.9443 -2.001622,3.05487 -3.038114,3.5182 -1.518523,0.67882 z m 8.029806,-10.555692 c 1.865783,-1.925 3.617334,-3.5 3.892334,-3.5 0.275,0 -1.026551,1.575 -2.892334,3.5 -1.865783,1.925 -3.617334,3.500002 -3.892334,3.500002 -0.275,0 1.026551,-1.575002 2.892334,-3.500002 z m 12.812496,-7.183114 c 0.72187,-0.288871 1.58437,-0.253344 1.91667,0.07895 0.33229,0.332292 -0.25834,0.568641 -1.3125,0.52522 -1.16495,-0.04798 -1.4019,-0.284941 -0.60417,-0.604167 z m 10,0 c 0.72187,-0.288871 1.58437,-0.253344 1.91667,0.07895 0.33229,0.332292 -0.25834,0.568641 -1.3125,0.52522 -1.16495,-0.04798 -1.4019,-0.284941 -0.60417,-0.604167 z"
       id="path835"
       inkscape:connector-curvature="0" />
    <path
       style="fill:#54555f"
       d="m -1.9745763,236.34746 v -8.5 h 107.9999963 108 v 8.5 8.5 h -108 -107.9999963 z m 13.2500003,2.83772 c -0.6875,-0.27741 -1.25,-1.22033 -1.25,-2.09537 0,-1.28661 0.442771,-1.17502 2.314451,0.58334 3.126696,2.93737 4.201366,2.78104 1.239945,-0.18038 -2.180899,-2.1809 -5.5543963,-4.1117 -5.5543963,-3.17902 0,1.79135 2.2034873,5.51804 3.2252493,5.45476 1.002884,-0.0621 1.008162,-0.18652 0.02475,-0.58333 z m 11.699687,-2.24371 c 0.818722,-1.5298 0.561291,-1.77659 -1.744622,-1.67256 -1.487786,0.0671 -3.155065,-0.16963 -3.705065,-0.52612 -0.55,-0.35649 -1.9,-0.2854 -3,0.15797 -1.698518,0.68461 -1.736203,0.81672 -0.25,0.87641 0.9625,0.0387 1.756891,0.63279 1.765313,1.32029 0.01021,0.83333 0.338437,0.75 0.984687,-0.25 0.861666,-1.33333 0.972777,-1.33333 1,0 0.02534,1.24131 0.181163,1.26233 0.903509,0.12188 0.480086,-0.75796 1.395047,-1.0554 2.033246,-0.66097 0.865853,0.53513 0.830777,1.12398 -0.138197,2.32008 -0.962877,1.18856 -0.97682,1.40966 -0.05393,0.85527 0.684542,-0.4112 1.676821,-1.55522 2.205064,-2.54225 z m 5.560394,1.88968 c 0.345464,-0.55897 1.047021,-0.75742 1.559017,-0.44098 0.511996,0.31643 0.878701,-0.68873 0.814901,-2.23369 -0.0638,-1.54496 -0.312491,-2.06984 -0.552644,-1.16641 -0.299117,1.12526 -1.111858,1.46604 -2.580447,1.082 -2.061123,-0.539 -2.068734,-0.59 -0.197356,-1.32233 1.799047,-0.70403 1.77606,-0.76703 -0.303552,-0.83199 -2.528955,-0.079 -3.048797,1.68595 -0.755744,2.56588 0.821841,0.31537 1.240747,0.98359 0.930902,1.48493 -0.309845,0.50134 -1.051789,0.60965 -1.648765,0.2407 -0.647828,-0.40038 -0.797753,-0.20538 -0.371885,0.48369 0.881408,1.42615 2.27135,1.488 3.105573,0.1382 z m 10.489919,-0.15036 c 0,-0.36666 -0.5625,-0.8949 -1.25,-1.17387 -0.992435,-0.40269 -0.994732,-0.68816 -0.01115,-1.38546 0.8154,-0.57806 0.04633,-0.91206 -2.25,-0.97715 -2.682073,-0.076 -3.48885,0.30216 -3.48885,1.63546 0,0.9539 0.1875,1.92186 0.416667,2.15102 0.691256,0.69126 6.583333,0.46751 6.583333,-0.25 z m -6,-1.27431 c 0,-0.85746 0.45,-1.55902 1,-1.55902 0.55,0 1,0.42344 1,0.94098 0,0.51754 -0.45,1.2191 -1,1.55902 -0.55,0.33992 -1,-0.0835 -1,-0.94098 z m 9.644213,0.0369 c -0.07932,-1.32222 -0.443278,-2.21942 -0.808803,-1.99377 -0.365524,0.22565 -0.892498,-0.15503 -1.171052,-0.84596 -0.278555,-0.69093 -0.54199,0.008 -0.585411,1.55279 -0.04592,1.63399 0.339358,2.55049 0.921053,2.19098 0.55,-0.33992 1,-0.14148 1,0.44098 0,0.58246 0.177396,1.05902 0.394213,1.05902 0.216818,0 0.329318,-1.08182 0.25,-2.40404 z m -34.6442133,0.40408 c 0,-0.55 -0.1984424,-1 -0.440983,-1 -0.2425407,0 -0.7190983,0.45 -1.059017,1 -0.3399187,0.55 -0.1414763,1 0.440983,1 0.5824594,0 1.059017,-0.45 1.059017,-1 z M 158.01011,237.43079 c 0.008,0.59584 0.69031,1.08334 1.51531,1.08334 1.80231,0 2.03663,-1.63382 0.25,-1.74318 -0.6875,-0.0421 -2.0375,-0.22726 -3,-0.41152 -1.77324,-0.33945 -2.31422,0.59047 -1.06831,1.83639 0.37494,0.37493 1.04305,0.11243 1.48469,-0.58333 0.46868,-0.73835 0.80937,-0.814 0.81831,-0.1817 z m 9.01531,0.41667 c 0,-0.55 -0.675,-1 -1.5,-1 -0.825,0 -1.5,0.45 -1.5,1 0,0.55 0.675,1 1.5,1 0.825,0 1.5,-0.45 1.5,-1 z m 4,-0.059 c 0,-0.58246 -0.45,-0.7809 -1,-0.44098 -0.55,0.33992 -1,0.0665 -1,-0.60765 0,-0.67413 -0.27006,-0.95562 -0.60014,-0.62555 -0.76825,0.76826 0.42454,2.7332 1.65916,2.7332 0.51754,0 0.94098,-0.47656 0.94098,-1.05902 z m 4,0.059 c 0,-0.55 -0.70156,-1 -1.55902,-1 -0.85746,0 -1.2809,0.45 -0.94098,1 0.33992,0.55 1.04148,1 1.55902,1 0.51754,0 0.94098,-0.45 0.94098,-1 z m 3,0.059 c 0,-0.51754 -0.45,-1.2191 -1,-1.55902 -0.55,-0.33992 -1,0.0835 -1,0.94098 0,0.85746 0.45,1.55902 1,1.55902 0.55,0 1,-0.42344 1,-0.94098 z m 11,-0.159 c 0,-0.495 -1.575,-0.9 -3.5,-0.9 -1.925,0 -3.5,0.405 -3.5,0.9 0,0.495 1.575,0.9 3.5,0.9 1.925,0 3.5,-0.405 3.5,-0.9 z m 1.68311,-1.0875 c -0.31922,-0.79773 -0.55618,-0.56078 -0.60416,0.60417 -0.0434,1.05416 0.19292,1.64479 0.52522,1.3125 0.33229,-0.3323 0.36781,-1.1948 0.0789,-1.91667 z m 2.50022,-0.0292 c -0.71756,-0.71756 -1.18333,-0.7766 -1.18333,-0.15 0,0.56834 0.3,1.33334 0.66667,1.7 0.36666,0.36667 0.89916,0.43417 1.18333,0.15 0.28417,-0.28416 -0.0158,-1.04916 -0.66667,-1.7 z m 7.83198,0.72727 c 0.008,-0.55583 0.49268,-0.3356 1.07613,0.4894 0.82928,1.1726 0.97781,1.19167 0.68048,0.0874 -0.46356,-1.72172 -3.7658,-2.37471 -3.78723,-0.74889 -0.01,0.73615 -0.28437,0.7953 -0.75,0.16152 -1.15327,-1.56973 -3.23469,-1.64489 -3.23469,-0.1168 0,0.89746 1.0535,1.34014 3,1.26059 1.65,-0.0674 3.00689,-0.57737 3.01531,-1.13319 z m 5.41527,0.43179 c 0.88702,0.73615 1.23609,0.60674 1.23609,-0.45827 0,-0.81626 -0.825,-1.48412 -1.83334,-1.48412 -1.10944,0 -1.80216,0.69099 -1.75438,1.75 0.0502,1.11289 0.26764,1.27973 0.59724,0.45826 0.36309,-0.90491 0.88846,-0.98453 1.75439,-0.26587 z"
       id="path833"
       inkscape:connector-curvature="0" />
    <path
       style="fill:#0e0f20"
       d="m -1.9745763,236.34746 v -8.5 h 107.9999963 108 v 8.5 8.5 h -108 -107.9999963 z m 11.469989,2.45144 c 0.356425,0.57671 1.1839873,1.04167 1.8390283,1.03325 0.715616,-0.009 0.592275,-0.40223 -0.309017,-0.98469 -1.2926873,-0.8354 -1.2662923,-0.97149 0.190983,-0.98469 0.930041,-0.008 1.936177,0.38142 2.235858,0.86632 0.462592,0.74849 3.144382,0.81632 9.323159,0.23581 0.6875,-0.0646 1.25,-0.75031 1.25,-1.52382 0,-0.9743 0.69126,-1.21715 2.25,-0.79044 1.829573,0.50085 1.923001,0.68391 0.5,0.9797 -3.083519,0.64096 -1.870209,2.02257 1.687623,1.92172 1.915783,-0.0543 3.175485,-0.52159 2.845491,-1.05553 -0.364029,-0.58901 -0.05108,-0.61726 0.812378,-0.0733 0.772479,0.48661 3.763794,0.93588 6.647365,0.99837 4.196569,0.0909 5.027537,-0.14583 4.16391,-1.18644 -1.376884,-1.65904 -0.298438,-3.47519 1.625258,-2.737 0.807386,0.30983 1.467975,0.14017 1.467975,-0.377 0,-1.74696 -1.307722,-2.26316 -2.734206,-1.07929 -1.096152,0.90973 -1.600522,0.88206 -2.220959,-0.12182 -0.608787,-0.98504 -0.900435,-1.00575 -1.207117,-0.0857 -0.45669,1.37007 -7.759267,1.6743 -8.716898,0.36315 -0.704084,-0.964 -3.881509,-1.02602 -6.12082,-0.11946 -2.776973,1.12422 -7.043653,1.50785 -7.555692,0.67935 -0.279377,-0.45204 -1.506137,-0.44914 -2.726133,0.006 -1.219996,0.45559 -3.19239,0.46149 -4.383097,0.0131 -1.6127143,-0.60731 -2.3397053,-0.38345 -2.8501594,0.87765 -0.584146,1.44315 -0.8211589,1.33954 -1.6065612,-0.70228 -1.3674805,-3.55507 -2.0699618,-1.9529 -0.7738865,1.76502 0.857632,2.46021 1.4126603,2.94587 2.4154813,2.1136 0.9030545,-0.74947 1.5005565,-0.75927 1.9500365,-0.032 z m 4.5300113,-1.45144 c 0,-0.825 0.45,-1.5 1,-1.5 0.55,0 1,0.675 1,1.5 0,0.825 -0.45,1.5 -1,1.5 -0.55,0 -1,-0.675 -1,-1.5 z m 5.582949,0.63421 c -0.430771,-0.697 -0.513159,-1.53733 -0.183085,-1.86741 0.894961,-0.89496 1.870768,0.4213 1.387387,1.87145 -0.338725,1.01617 -0.574267,1.01538 -1.204302,-0.004 z m 17.917051,-1.13421 c 0.339919,-0.55 1.041476,-1 1.559017,-1 0.517541,0 0.940983,0.45 0.940983,1 0,0.55 -0.701558,1 -1.559017,1 -0.857459,0 -1.280902,-0.45 -0.940983,-1 z m 130.499996,1.86221 c 0,0.80691 15.85498,0.61615 16.67171,-0.20059 0.32519,-0.32519 1.43209,-0.14125 2.45977,0.40875 1.49509,0.80015 1.88257,0.64323 1.93881,-0.78519 0.0569,-1.44609 0.19939,-1.50026 0.75,-0.28518 0.94031,2.07509 13.92343,2.01708 15.24297,-0.0681 0.73592,-1.16294 0.90899,-1.0921 0.92143,0.37713 0.008,0.99496 0.46531,1.5309 1.01531,1.19098 0.55,-0.33992 1,-1.2703 1,-2.06751 0,-1.15492 -1.62573,-1.42573 -8,-1.33261 -5.25004,0.0767 -8.00526,0.5093 -8.01531,1.2585 -0.0108,0.80099 -0.23453,0.81902 -0.75,0.0604 -0.47455,-0.69836 -2.96272,-0.86092 -7.02714,-0.45912 -3.46084,0.34214 -6.4949,0.41962 -6.74233,0.17218 -0.24744,-0.24744 -5.40342,-0.49084 -11.45774,-0.54088 -8.64726,-0.0715 -11.0078,0.2 -11.00766,1.26599 1e-4,0.74634 0.56268,1.14612 1.25018,0.88838 0.6875,-0.25773 2.14026,-0.15144 3.22835,0.2362 1.0881,0.38764 3.4506,0.37276 5.25,-0.0331 1.79941,-0.40583 3.27165,-0.44466 3.27165,-0.0863 z"
       id="path831"
       inkscape:connector-curvature="0" />
  </g>
</svg>
